<?xml version="1.0" encoding="utf-8"?>
<!-- Generator: Adobe Illustrator 21.1.0, SVG Export Plug-In . SVG Version: 6.00 Build 0)  -->
<svg version="1.1" id="Layer_1" xmlns="http://www.w3.org/2000/svg" xmlns:xlink="http://www.w3.org/1999/xlink" x="0px" y="0px"
	 viewBox="0 0 190.8 211.7" style="enable-background:new 0 0 190.8 211.7;" xml:space="preserve">
<style type="text/css">
	.st0{fill:#FFFFFF;}
	.st1{fill:none;}
</style>
<path class="st0" d="M45.6,133.8c-0.9,7-5.2,10.5-10.3,10.5c-4.1,0-6.8-3.1-6.6-6.2c0.3-4.5,3.1-6,8.2-7.3c3.1-0.8,6.3-1.7,9.2-3.2
	L45.6,133.8z M101,105.3c5.8,0,9.6,5.1,9.1,11.3H88.5C90,109.3,94.2,105.3,101,105.3z M87.3,130.7h60.9c0.9,0.2,1.8,0.4,2.8,0.6
	c10.4,2.1,12.2,3.2,11.9,7.1c-0.3,3.9-5.1,5.2-8.1,5.2c-2.7,0-4.9-0.8-5.9-1.9c-1.5-1.6-2.2-3.4-2.3-5.5c0-0.3,0.1-0.8,0.1-1.1
	h-37.5l-1.6,3.2h0c-2.1,3.2-6.2,4.8-9.9,4.8C91,143,87.6,138,87.3,130.7z"/>
<path class="st1" d="M49.3,208c0,0.6,0.3,0.8,0.8,0.8c0.9,0,1.4-0.8,1.4-1.6v-0.9l-1.4,0.6C49.7,207.2,49.3,207.4,49.3,208z"/>
<path class="st1" d="M26.2,204.2c-0.9,0-1.2,0.8-1.3,1.7h2.5C27.4,205,27.2,204.2,26.2,204.2z"/>
<path class="st1" d="M120.9,204.1c-1.1,0-1.6,0.8-1.6,2.4c0,1.6,0.6,2.4,1.6,2.4c1.1,0,1.6-0.8,1.6-2.4
	C122.5,205,121.9,204.1,120.9,204.1z"/>
<path class="st1" d="M102.3,208c0,0.6,0.3,0.8,0.8,0.8c0.9,0,1.4-0.8,1.4-1.6v-0.9l-1.4,0.6C102.7,207.2,102.3,207.4,102.3,208z"/>
<path class="st1" d="M148.9,204.2c-0.9,0-1.2,0.8-1.3,1.7h2.5C150.1,205,149.9,204.2,148.9,204.2z"/>
<path class="st1" d="M80.6,204.3c-0.9,0-1.4,0.7-1.4,2.3c0,1.5,0.5,2.3,1.4,2.3c0.9,0,1.6-0.7,1.6-2.4
	C82.2,205,81.5,204.3,80.6,204.3z"/>
<polygon class="st1" points="5.1,202.7 4.1,205.9 6.3,205.9 5.2,202.7 "/>
<path class="st1" d="M180.7,204.2c-0.9,0-1.2,0.8-1.3,1.7h2.5C181.9,205,181.6,204.2,180.7,204.2z"/>
<path class="st0" d="M101,105.3c-6.7,0-10.9,4-12.5,11.3h21.6C110.5,110.4,106.8,105.3,101,105.3z"/>
<path class="st0" d="M28.7,138.1c-0.2,3.1,2.5,6.2,6.6,6.2c5.1,0,9.4-3.5,10.3-10.5l0.5-6.2c-2.9,1.6-6,2.5-9.2,3.2
	C31.8,132.1,29.1,133.6,28.7,138.1z"/>
<path class="st0" d="M178.2,80.8c0.2-0.2,0.3-0.5,0.3-0.9c0-0.4-0.1-0.7-0.3-0.9c-0.2-0.2-0.6-0.2-1-0.2h-0.6v2.3h0.6
	C177.6,81.1,178,81,178.2,80.8z"/>
<path class="st0" d="M174.8,86.2c0.9,0.5,1.8,0.7,2.8,0.7c1,0,1.9-0.2,2.8-0.7c0.9-0.5,1.5-1.2,2-2c0.5-0.8,0.7-1.8,0.7-2.7
	c0-1-0.2-1.9-0.7-2.8c-0.5-0.9-1.2-1.5-2-2c-0.9-0.5-1.8-0.7-2.7-0.7c-1,0-1.9,0.2-2.7,0.7c-0.8,0.5-1.5,1.2-2,2
	c-0.5,0.9-0.8,1.8-0.8,2.8c0,1,0.2,1.9,0.7,2.8C173.2,85,173.9,85.7,174.8,86.2z M175,77.5h2.3c1,0,1.8,0.2,2.2,0.6
	c0.5,0.4,0.7,1,0.7,1.8c0,1-0.4,1.7-1.3,2l2.1,3.5h-1.8l-1.7-3h-0.8v3H175V77.5z"/>
<path class="st0" d="M92.8,188.6h13.1h41.2H167c5.4,0,10.3-1.8,14.3-4.9c0.4-0.3,0.8-0.6,1.1-1c-42.5,4.9-90.1-7.2-115.6-29.6
	c0.3,1.7,0.7,3.3,1.5,4.7H45.2c-0.4-1.8-0.6-4.5-0.3-6.3h-0.2c-5.3,6.2-12.4,8-19.7,8c-11.4,0-20.4-6.2-19.3-20.3
	c1.6-21.2,23.5-20.5,35.3-22.9c3.1-0.6,6.3-1.7,6.6-6c0.3-4.5-3.3-6.2-6.9-6.2c-7,0-8.7,4-9,6.9h-21c2.1-18.9,18.2-22,32.2-22
	c9.6,0,15.8,1.5,19.7,4c0,0,0,0,0,0C72,84.3,86.1,77.8,103.2,74l4.5-0.9l0.5,2.1C89.5,79.9,75.3,88,67.4,98.2
	c1.9,3.9,2,8.5,1.7,13.4c5.2-13.3,16.7-22.7,31.1-22.7c15.5,0,24.7,6.5,28.6,18.3c2.9-14.4,18.1-18.3,29.2-18.3
	c12.8,0,27.9,4,27.2,21.2h-20.6c0.1-2.2-0.8-3.9-2.2-5.1c-1.3-1.3-3.1-1.9-4.9-1.9c-3.2,0-6.9,0.8-7.3,5.2c-0.1,1.9,1.2,2.9,2.4,3.5
	c3.6,1.8,12.2,2.3,19.5,5.2c7.3,2.7,13.6,7.8,12.7,18.8c-1.4,18.7-17.6,23.7-32,23.7c-11.4,0-23.5-4.3-26.9-15.4
	c-4.5,7.2-11.2,11.8-18.8,14c25,10.3,55.5,14,82.8,10.1c0.1-0.9,0.1-1.7,0.1-2.6V22.6c0-12.8-10.3-23.1-23.1-23.1H24.1
	C11.4-0.4,1,9.9,1,22.6v166h43.6h15.6h5.7h13.4H92.8z M171.8,78.1c0.6-1,1.4-1.8,2.4-2.4c1-0.6,2.1-0.9,3.3-0.9
	c1.2,0,2.3,0.3,3.3,0.9c1,0.6,1.8,1.4,2.4,2.4c0.6,1,0.9,2.1,0.9,3.3c0,1.2-0.3,2.2-0.8,3.2c-0.6,1-1.4,1.8-2.4,2.4
	c-1,0.6-2.1,0.9-3.4,0.9c-1.2,0-2.3-0.3-3.3-0.9c-1-0.6-1.8-1.4-2.4-2.4c-0.6-1-0.9-2.1-0.9-3.3C170.9,80.2,171.2,79.1,171.8,78.1z"
	/>
<path class="st0" d="M185.6,179.2c1.4-2,2.6-4.2,3.4-6.5c-31.4,5.7-68.2,1.2-96.4-12.3C117.5,174.4,152.8,181.8,185.6,179.2z"/>
<path class="st0" d="M97.8,143c3.7,0,7.8-1.6,9.9-4.8h0l1.6-3.2h37.5c0,0.4-0.1,0.9-0.1,1.1c0,2.1,0.8,4,2.3,5.5
	c1.1,1.2,3.2,1.9,5.9,1.9c3,0,7.8-1.3,8.1-5.2c0.3-3.9-1.6-5.1-11.9-7.1c-1-0.2-1.9-0.4-2.8-0.6H87.3C87.6,138,91,143,97.8,143z"/>
<path class="st0" d="M8.9,208l-2.7-7.1H4.4L1.9,208c-0.2,0.6-0.7,0.7-1.4,0.7v1h4.1v-1h-1c-0.3,0-0.4-0.1-0.4-0.2
	c0-0.1,0-0.2,0.1-0.3l0.4-1.3h3l0.4,1.3c0,0.1,0.1,0.2,0.1,0.3c0,0.1-0.1,0.2-0.4,0.2h-1v1h4.6v-1C9.6,208.7,9.2,208.6,8.9,208z
	 M4.1,205.9l1.1-3.2h0l1.2,3.2H4.1z"/>
<path class="st0" d="M21.7,208.3v-3.1c0-1.2-0.8-1.9-1.8-1.9c-1,0-1.6,0.5-2.2,1.3c-0.3-0.9-0.9-1.3-1.8-1.3c-1,0-1.6,0.5-2.1,1.3h0
	v-1.1h-2.9v0.9h0.7c0.4,0,0.5,0.1,0.5,0.5v3.4c0,0.4-0.2,0.5-0.5,0.5h-0.7v0.9h3.8v-0.9h-0.4c-0.4,0-0.5-0.1-0.5-0.5v-2.4
	c0-0.8,0.7-1.6,1.5-1.6c0.8,0,0.9,0.5,0.9,1.2v2.8c0,0.4-0.2,0.5-0.5,0.5h-0.4v0.9h3.4v-0.9h-0.4c-0.4,0-0.5-0.1-0.5-0.5v-2.4
	c0-0.9,0.7-1.6,1.5-1.6c0.5,0,0.9,0.3,0.9,0.8v3.1c0,0.4-0.2,0.5-0.5,0.5h-0.4v0.9H23v-0.9h-0.7C21.9,208.8,21.7,208.7,21.7,208.3z"
	/>
<path class="st0" d="M26.2,203.3c-1.8,0-3.1,1.4-3.1,3.3c0,2.2,1.1,3.3,3.1,3.3c1.8,0,2.7-0.9,2.9-2.4h-1.1
	c-0.2,0.9-0.7,1.4-1.6,1.4c-1.2,0-1.6-1.1-1.5-2.2h4.3C29.3,205.2,28.4,203.3,26.2,203.3z M24.9,205.9c0-0.8,0.4-1.7,1.3-1.7
	c0.9,0,1.2,0.8,1.2,1.7H24.9z"/>
<path class="st0" d="M34.3,203.3c-0.7,0-1.1,0.4-1.7,1.2h0v-1h-2.8v0.9h0.7c0.4,0,0.5,0.1,0.5,0.5v3.4c0,0.4-0.2,0.5-0.5,0.5h-0.7
	v0.9H34v-0.9h-0.8c-0.4,0-0.5-0.1-0.5-0.5v-2.2c0-1,0.6-2,1.6-2c0.2,0,0.4,0,0.6,0.2c-0.5,0-0.9,0.3-0.9,0.8c0,0.5,0.4,0.8,0.9,0.8
	c0.7,0,1-0.5,1-1.1C35.9,203.8,35.1,203.3,34.3,203.3z"/>
<path class="st0" d="M39.2,201.7c0-0.5-0.4-1-1-1c-0.5,0-1,0.4-1,1c0,0.5,0.4,1,1,1C38.8,202.6,39.2,202.2,39.2,201.7z"/>
<path class="st0" d="M39.2,208.3v-4.8h-2.7v0.9h0.6c0.4,0,0.5,0.1,0.5,0.5v3.4c0,0.4-0.2,0.5-0.5,0.5h-0.6v0.9h3.9v-0.9h-0.7
	C39.4,208.8,39.2,208.7,39.2,208.3z"/>
<path class="st0" d="M44.9,205.5c0,0.6,0.6,0.8,1,0.8c0.6,0,1-0.5,1-1.1c0-1.1-1.2-2-2.7-2c-1.7,0-3.3,1.3-3.3,3.3
	c0,2.1,1.1,3.3,3.1,3.3c1.8,0,2.7-1,2.9-2.8h-1c-0.1,1-0.7,1.6-1.4,1.6c-1.4,0-1.7-1.3-1.7-2.3c0-1,0.4-2.3,1.8-2.3
	c0.5,0,1,0.1,1.3,0.5C45.1,204.7,44.9,205,44.9,205.5z"/>
<path class="st0" d="M53.7,207.9c0,0.8-0.2,1-0.4,1c-0.2,0-0.3-0.1-0.3-0.4v-3.3c0-1.1-0.8-1.9-2.6-1.9c-1,0-2.7,0.3-2.7,1.6
	c0,0.5,0.4,1,1,1c0.5,0,0.9-0.2,0.9-0.8c0-0.5-0.4-0.8-0.9-0.7c0.2-0.3,0.9-0.4,1.2-0.4c0.7,0,1.4,0.2,1.4,1c0,1.9-4,0.6-4,3.2
	c0,1.2,0.8,1.7,1.8,1.7c0.8,0,1.7-0.2,2.2-1c0.1,0.7,0.7,1,1.3,1c1.1,0,1.7-0.6,1.7-2.1v-0.4h-0.8V207.9z M51.5,207.3
	c0,0.9-0.5,1.6-1.4,1.6c-0.5,0-0.8-0.3-0.8-0.8c0-0.6,0.4-0.8,0.8-1l1.4-0.6V207.3z"/>
<path class="st0" d="M61.9,208.3v-2.9c0-1.4-0.7-2.1-1.9-2.1c-1,0-1.8,0.5-2.3,1.4h0v-1.2h-2.9v0.9h0.4c0.7,0,0.9,0.1,0.9,0.7v3.2
	c0,0.4-0.2,0.5-0.5,0.5h-0.8v0.9h3.9v-0.9h-0.5c-0.4,0-0.5-0.1-0.5-0.5v-2.4c0-0.8,0.9-1.5,1.5-1.5c0.6,0,1.2,0.2,1.2,1.2v2.8
	c0,0.4-0.2,0.5-0.7,0.5h-0.3v0.9h3.9v-0.9h-0.5C62.1,208.8,61.9,208.7,61.9,208.3z"/>
<path class="st0" d="M67.8,201.9h0.6c0.7,0,0.8,0.2,0.8,0.7v5.2c0,0.8-0.3,0.9-0.7,0.9h-0.7v1h8.8V206h-1c-0.1,2-0.6,2.7-1.8,2.7
	h-2.7v-3.1h0.7c0.8,0,1.2,0.4,1.2,1.5v0.3h1V203h-1v0.2c0,1.1-0.4,1.5-1.2,1.5h-0.7v-2.8h2.3c1.8,0,1.9,0.7,2.1,2.5h1v-3.5h-8.8
	V201.9z"/>
<path class="st0" d="M83.8,208.2v-7.3h-2.9v0.9h0.8c0.4,0,0.5,0.2,0.5,0.6v2.1h0c-0.3-0.5-1-1.1-2.1-1.1c-1.7,0-2.6,1.7-2.6,3.3
	s0.8,3.3,2.6,3.3c0.9,0,1.6-0.4,2.1-1.3h0v1.1H85v-0.9h-0.7C83.9,208.8,83.8,208.6,83.8,208.2z M80.6,208.8c-0.9,0-1.4-0.7-1.4-2.3
	c0-1.5,0.5-2.3,1.4-2.3c0.9,0,1.6,0.7,1.6,2.2C82.2,208.1,81.5,208.8,80.6,208.8z"/>
<path class="st0" d="M92,208.3v-4.8h-2.9v0.9h0.7c0.4,0,0.7,0.2,0.7,0.5v2.3c0,0.6-0.5,1.7-1.6,1.7c-0.7,0-1-0.4-1-1v-4.4H85v0.9
	h0.7c0.4,0,0.5,0.1,0.5,0.5v3.1c0,1.2,0.7,1.9,2,1.9c0.9,0,1.7-0.3,2.2-1.2h0v1h2.9v-0.9h-0.5C92.1,208.8,92,208.7,92,208.3z"/>
<path class="st0" d="M97.8,205.5c0,0.6,0.6,0.8,1,0.8c0.6,0,1-0.5,1-1.1c0-1.1-1.2-2-2.7-2c-1.7,0-3.3,1.3-3.3,3.3
	c0,2.1,1.1,3.3,3.1,3.3c1.8,0,2.7-1,2.9-2.8h-1c-0.1,1-0.7,1.6-1.4,1.6c-1.4,0-1.7-1.3-1.7-2.3c0-1,0.4-2.3,1.8-2.3
	c0.5,0,1,0.1,1.3,0.5C98.1,204.7,97.8,205,97.8,205.5z"/>
<path class="st0" d="M106.7,207.9c0,0.8-0.2,1-0.4,1c-0.2,0-0.3-0.1-0.3-0.4v-3.3c0-1.1-0.8-1.9-2.6-1.9c-1,0-2.7,0.3-2.7,1.6
	c0,0.5,0.4,1,1,1c0.5,0,0.9-0.2,0.9-0.8c0-0.5-0.4-0.8-0.9-0.7c0.2-0.3,0.9-0.4,1.2-0.4c0.7,0,1.4,0.2,1.4,1c0,1.9-4,0.6-4,3.2
	c0,1.2,0.8,1.7,1.8,1.7c0.8,0,1.7-0.2,2.2-1c0.1,0.7,0.7,1,1.3,1c1.1,0,1.7-0.6,1.7-2.1v-0.4h-0.8V207.9z M104.5,207.3
	c0,0.9-0.5,1.6-1.4,1.6c-0.5,0-0.8-0.3-0.8-0.8c0-0.6,0.4-0.8,0.8-1l1.4-0.6V207.3z"/>
<path class="st0" d="M111.6,207.9c0,0.5-0.2,0.8-0.6,0.8c-0.4,0-0.5-0.2-0.5-0.4v-3.9h1.7v-0.9h-1.8V201h-0.8
	c-0.1,1.2-0.5,2.4-1.8,2.5v0.8h1.1v4.1c0,1.1,0.7,1.5,1.7,1.5c1,0,1.8-0.6,1.8-2v-1.1h-0.9V207.9z"/>
<path class="st0" d="M113.9,201.7c0,0.5,0.4,1,1,1s1-0.4,1-1c0-0.5-0.4-1-1-1S113.9,201.1,113.9,201.7z"/>
<path class="st0" d="M115.8,208.3v-4.8h-2.7v0.9h0.6c0.4,0,0.5,0.1,0.5,0.5v3.4c0,0.4-0.2,0.5-0.5,0.5h-0.6v0.9h3.9v-0.9h-0.6
	C116,208.8,115.8,208.7,115.8,208.3z"/>
<path class="st0" d="M120.9,203.3c-2,0-3.4,1.2-3.4,3.3c0,2.1,1.4,3.3,3.4,3.3c2,0,3.4-1.2,3.4-3.3
	C124.3,204.5,122.8,203.3,120.9,203.3z M120.9,209c-1.1,0-1.6-0.8-1.6-2.4c0-1.6,0.6-2.4,1.6-2.4c1.1,0,1.6,0.8,1.6,2.4
	C122.5,208.2,121.9,209,120.9,209z"/>
<path class="st0" d="M131.9,208.3v-2.9c0-1.4-0.7-2.1-1.9-2.1c-1,0-1.8,0.5-2.3,1.4h0v-1.2h-2.9v0.9h0.4c0.7,0,0.9,0.1,0.9,0.7v3.2
	c0,0.4-0.2,0.5-0.5,0.5h-0.8v0.9h3.9v-0.9h-0.5c-0.4,0-0.5-0.1-0.5-0.5v-2.4c0-0.8,0.9-1.5,1.5-1.5c0.6,0,1.2,0.2,1.2,1.2v2.8
	c0,0.4-0.2,0.5-0.7,0.5h-0.3v0.9h3.9v-0.9h-0.5C132,208.8,131.9,208.7,131.9,208.3z"/>
<path class="st0" d="M139.4,202.9c0-0.9,0.5-1.2,1.7-1.2c1.6,0,2.4,1,2.7,2.5h1v-3.3h-0.8l-0.4,0.7c-0.7-0.5-1.5-0.9-2.5-0.9
	c-1.6,0-3.3,0.8-3.3,2.7c0,3.8,5.9,2.1,5.9,4.4c0,0.6-0.6,1.2-1.7,1.2c-1.9,0-3-1-3.2-2.7h-1v3.6h0.9l0.3-0.8c0.8,0.6,1.8,1,2.8,1
	c1.9,0,3.5-0.7,3.5-2.8C145.4,203.4,139.4,204.9,139.4,202.9z"/>
<path class="st0" d="M149,203.3c-1.8,0-3.1,1.4-3.1,3.3c0,2.2,1.1,3.3,3.1,3.3c1.8,0,2.7-0.9,2.9-2.4h-1.1c-0.2,0.9-0.7,1.4-1.6,1.4
	c-1.2,0-1.6-1.1-1.5-2.2h4.3C152.1,205.2,151.1,203.3,149,203.3z M147.7,205.9c0-0.8,0.4-1.7,1.3-1.7c0.9,0,1.2,0.8,1.2,1.7H147.7z"
	/>
<path class="st0" d="M156.7,203.3c-0.7,0-1.1,0.4-1.7,1.2h0v-1h-2.8v0.9h0.7c0.4,0,0.5,0.1,0.5,0.5v3.4c0,0.4-0.2,0.5-0.5,0.5h-0.7
	v0.9h4.2v-0.9h-0.8c-0.4,0-0.5-0.1-0.5-0.5v-2.2c0-1,0.6-2,1.6-2c0.2,0,0.4,0,0.6,0.2c-0.5,0-0.9,0.3-0.9,0.8c0,0.5,0.4,0.8,0.9,0.8
	c0.7,0,1-0.5,1-1.1C158.4,203.8,157.6,203.3,156.7,203.3z"/>
<path class="st0" d="M163.1,204.3h0.6c0.2,0,0.3,0.1,0.3,0.3c0,0.1-0.1,0.3-0.2,0.6l-1,2.9h0l-0.9-2.9c-0.1-0.3-0.2-0.5-0.2-0.6
	c0-0.2,0.1-0.3,0.3-0.3h0.5v-0.9h-3.3v0.9c0.6,0,0.8,0.1,0.9,0.4l1.7,4.9h1.7l1.7-4.8c0.1-0.3,0.3-0.5,0.9-0.6v-0.9h-2.9V204.3z"/>
<path class="st0" d="M169.3,208.3v-4.8h-2.7v0.9h0.6c0.4,0,0.5,0.1,0.5,0.5v3.4c0,0.4-0.2,0.5-0.5,0.5h-0.6v0.9h3.9v-0.9h-0.7
	C169.5,208.8,169.3,208.7,169.3,208.3z"/>
<path class="st0" d="M167.4,201.7c0,0.5,0.4,1,1,1s1-0.4,1-1c0-0.5-0.4-1-1-1S167.4,201.1,167.4,201.7z"/>
<path class="st0" d="M175,205.5c0,0.6,0.6,0.8,1,0.8c0.6,0,1-0.5,1-1.1c0-1.1-1.2-2-2.7-2c-1.7,0-3.3,1.3-3.3,3.3
	c0,2.1,1.1,3.3,3.1,3.3c1.8,0,2.7-1,2.9-2.8h-1c-0.1,1-0.7,1.6-1.4,1.6c-1.4,0-1.7-1.3-1.7-2.3c0-1,0.4-2.3,1.8-2.3
	c0.5,0,1,0.1,1.3,0.5C175.2,204.7,175,205,175,205.5z"/>
<path class="st0" d="M180.7,203.3c-1.8,0-3.1,1.4-3.1,3.3c0,2.2,1.1,3.3,3.1,3.3c1.8,0,2.7-0.9,2.9-2.4h-1.1
	c-0.2,0.9-0.7,1.4-1.6,1.4c-1.2,0-1.6-1.1-1.5-2.2h4.3C183.8,205.2,182.9,203.3,180.7,203.3z M179.4,205.9c0-0.8,0.4-1.7,1.3-1.7
	c0.9,0,1.2,0.8,1.2,1.7H179.4z"/>
<path class="st0" d="M186.1,204.9c0-0.5,0.6-0.7,1-0.7c1,0,1.6,0.5,2,1.5h0.9v-2.2h-0.7l-0.3,0.5c-0.6-0.4-1.2-0.7-2-0.7
	c-1.2,0-2.4,0.7-2.4,2c0,2.4,4.2,1.6,4.2,2.9c0,0.5-0.6,0.8-1,0.8c-1.2,0-2-0.6-2.2-1.7h-1v2.4h0.9l0.3-0.5c0.6,0.5,1.4,0.7,2.2,0.7
	c1.2,0,2.4-0.6,2.4-2C190.2,205.5,186.1,206,186.1,204.9z"/>
</svg>
